<svg width="301" height="187" viewBox="0 0 301 187" fill="none" xmlns="http://www.w3.org/2000/svg">
<rect width="301" height="187" fill="url(#paint0_linear_2_4)" fill-opacity="0.96"/>
<path d="M76.4 98.8C73.648 98.8 71.4933 98 69.936 96.4C68.4 94.8 67.632 92.56 67.632 89.68C67.632 86.8853 68.24 84.3573 69.456 82.096C70.6933 79.8133 72.3573 78.0213 74.448 76.72C76.5387 75.4187 78.8427 74.768 81.36 74.768C82.896 74.768 84.1013 75.0133 84.976 75.504C85.8507 75.9947 86.288 76.6773 86.288 77.552C86.288 78.2773 86 78.896 85.424 79.408C84.848 79.8987 84.1333 80.144 83.28 80.144C82.3627 80.144 81.52 79.9413 80.752 79.536C80.0053 79.1307 79.3973 78.448 78.928 77.488C77.5413 78.0853 76.304 78.992 75.216 80.208C74.128 81.424 73.2747 82.8747 72.656 84.56C72.0373 86.224 71.728 88.016 71.728 89.936C71.728 92.0053 72.1333 93.6267 72.944 94.8C73.7547 95.9733 74.8747 96.56 76.304 96.56C77.392 96.56 78.3627 96.2933 79.216 95.76C80.0693 95.2053 80.7413 94.4587 81.232 93.52C81.744 92.56 82.0427 91.4933 82.128 90.32C82.96 90.32 83.6 90.5013 84.048 90.864C84.5173 91.2053 84.752 91.76 84.752 92.528C84.752 93.6587 84.368 94.704 83.6 95.664C82.8533 96.624 81.84 97.392 80.56 97.968C79.28 98.5227 77.8933 98.8 76.4 98.8ZM96.478 98.8C94.2167 98.8 92.446 98.1067 91.166 96.72C89.886 95.3333 89.246 93.424 89.246 90.992C89.246 88.688 89.7473 86.608 90.75 84.752C91.7527 82.896 93.1393 81.4453 94.91 80.4C96.6807 79.3333 98.654 78.8 100.83 78.8C102.515 78.8 103.827 79.2053 104.766 80.016C105.726 80.8267 106.206 81.9467 106.206 83.376C106.206 84.8907 105.662 86.192 104.574 87.28C103.486 88.3467 101.897 89.168 99.806 89.744C97.7367 90.2987 95.23 90.576 92.286 90.576L92.67 88.784C95.8487 88.8053 98.3127 88.336 100.062 87.376C101.833 86.3947 102.718 85.0293 102.718 83.28C102.718 82.5333 102.494 81.936 102.046 81.488C101.598 81.04 101.011 80.816 100.286 80.816C99.0273 80.816 97.854 81.2853 96.766 82.224C95.678 83.1413 94.814 84.4 94.174 86C93.534 87.5787 93.214 89.3067 93.214 91.184C93.214 92.8907 93.534 94.2347 94.174 95.216C94.814 96.176 95.6887 96.656 96.798 96.656C98.1847 96.656 99.3153 96.2187 100.19 95.344C101.065 94.4693 101.545 93.3067 101.63 91.856C102.462 91.856 103.102 92.016 103.55 92.336C103.998 92.6347 104.222 93.1147 104.222 93.776C104.222 94.6293 103.881 95.4507 103.198 96.24C102.515 97.008 101.577 97.6267 100.382 98.096C99.2087 98.5653 97.9073 98.8 96.478 98.8ZM113.035 98.8C112.309 98.8 111.765 98.576 111.403 98.128C111.04 97.7013 110.859 97.04 110.859 96.144C110.859 95.2693 111.147 93.3493 111.723 90.384C112.32 87.3973 112.96 84.6027 113.643 82L112.235 80.4C112.811 79.9307 113.365 79.568 113.899 79.312C114.453 79.0347 114.955 78.896 115.403 78.896C116 78.896 116.437 79.0667 116.715 79.408C116.992 79.728 117.131 80.144 117.131 80.656C117.131 81.3173 117.013 82.0427 116.779 82.832C116.565 83.6 116.245 84.5067 115.819 85.552L116.139 85.712C116.8 84.1333 117.472 82.832 118.155 81.808C118.859 80.784 119.563 80.0267 120.267 79.536C120.992 79.024 121.717 78.768 122.443 78.768C123.147 78.768 123.669 78.928 124.01 79.248C124.373 79.5467 124.555 80.016 124.555 80.656C124.555 81.36 124.277 81.9253 123.722 82.352C123.168 82.7787 122.443 82.992 121.547 82.992C120.416 82.992 119.317 83.632 118.251 84.912C117.184 86.192 116.32 87.856 115.659 89.904C114.997 91.952 114.667 94.064 114.667 96.24C114.667 97.0293 114.795 97.584 115.051 97.904C114.411 98.5013 113.739 98.8 113.035 98.8ZM131.569 98.8C130.566 98.8 129.787 98.5973 129.233 98.192C128.678 97.7867 128.283 97.1253 128.049 96.208C127.814 95.2693 127.697 93.9467 127.697 92.24C127.697 91.216 127.707 90.4587 127.729 89.968C127.75 88.0907 127.729 86.576 127.665 85.424C127.622 84.272 127.451 83.184 127.153 82.16C126.875 81.1147 126.406 80.2613 125.745 79.6C126.427 79.0667 127.185 78.8 128.016 78.8C128.913 78.8 129.595 79.1093 130.065 79.728C130.555 80.3467 130.897 81.36 131.089 82.768C131.281 84.1547 131.377 86.128 131.377 88.688C131.377 89.8187 131.377 90.8107 131.377 91.664C131.377 92.496 131.377 93.2107 131.377 93.808C131.377 94.3627 131.377 94.8213 131.377 95.184C131.398 95.5253 131.398 95.8133 131.377 96.048H131.697C134.214 92.4853 136.049 89.584 137.201 87.344C138.374 85.104 138.961 83.408 138.961 82.256C138.961 81.2107 138.737 80.3253 138.289 79.6C138.843 79.3013 139.302 79.0987 139.665 78.992C140.049 78.864 140.443 78.8 140.849 78.8C141.403 78.8 141.841 79.0133 142.161 79.44C142.481 79.8667 142.641 80.4427 142.641 81.168C142.641 82.0213 142.363 83.152 141.809 84.56C141.254 85.9467 140.411 87.632 139.281 89.616C138.15 91.5787 136.721 93.8613 134.993 96.464L135.473 97.424C135.067 97.8293 134.491 98.16 133.745 98.416C132.998 98.672 132.273 98.8 131.569 98.8ZM164.28 98.832C163.49 98.832 162.914 98.6293 162.552 98.224C162.189 97.8187 162.008 97.1573 162.008 96.24C162.008 94.9813 162.178 93.0933 162.52 90.576C162.861 88.0587 163.522 83.888 164.504 78.064L163.48 76.112C164.909 75.216 166.178 74.768 167.288 74.768C168.226 74.768 168.696 75.3333 168.696 76.464C168.696 76.656 168.6 77.3493 168.408 78.544C168.216 79.7173 168.002 81.0293 167.768 82.48C167.149 86.384 166.69 89.2853 166.392 91.184C166.114 93.0827 165.976 94.416 165.976 95.184C165.976 95.8027 166.04 96.3467 166.168 96.816C166.296 97.2853 166.488 97.68 166.744 98C165.912 98.5547 165.09 98.832 164.28 98.832ZM150.072 98.832C149.282 98.832 148.706 98.6293 148.344 98.224C147.981 97.8187 147.8 97.1573 147.8 96.24C147.8 95.0027 147.97 93.1253 148.312 90.608C148.653 88.0907 149.304 83.9093 150.264 78.064L149.272 76.112C150.701 75.216 151.97 74.768 153.08 74.768C154.018 74.768 154.488 75.3333 154.488 76.464C154.488 76.656 154.392 77.3493 154.2 78.544C154.008 79.7173 153.794 81.0293 153.56 82.48C152.941 86.384 152.482 89.2853 152.184 91.184C151.906 93.0827 151.768 94.416 151.768 95.184C151.768 95.8027 151.832 96.3467 151.96 96.816C152.088 97.2853 152.28 97.68 152.536 98C151.704 98.5547 150.882 98.832 150.072 98.832ZM151.192 86.416H164.568L164.152 88.688H150.712L151.192 86.416ZM178.725 98.8C177.573 98.8 176.549 98.4907 175.653 97.872C174.778 97.2533 174.095 96.3787 173.605 95.248C173.135 94.096 172.901 92.7733 172.901 91.28C172.901 88.976 173.445 86.8747 174.533 84.976C175.621 83.056 177.103 81.552 178.981 80.464C180.858 79.3547 182.927 78.8 185.189 78.8C186.17 78.8 187.173 78.8853 188.197 79.056C188.453 79.504 188.581 80.0053 188.581 80.56C186.17 80.56 184.079 81.0187 182.309 81.936C180.538 82.8533 179.183 84.1227 178.245 85.744C177.306 87.344 176.837 89.1573 176.837 91.184C176.837 92.6347 177.135 93.7653 177.733 94.576C178.33 95.3867 179.173 95.792 180.261 95.792C182.245 95.792 183.877 94.5333 185.157 92.016C186.437 89.4773 187.397 85.6587 188.037 80.56C188.271 80.2613 188.57 80.0267 188.933 79.856C189.317 79.6853 189.701 79.6 190.085 79.6C190.618 79.6 191.034 79.728 191.333 79.984C191.653 80.24 191.813 80.592 191.813 81.04C191.813 81.5307 191.738 82.1173 191.589 82.8C191.461 83.4827 191.237 84.4853 190.917 85.808C190.405 87.9627 190.01 89.8293 189.733 91.408C189.455 92.9867 189.317 94.5973 189.317 96.24C189.317 96.9867 189.509 97.5413 189.893 97.904C189.231 98.5013 188.517 98.8 187.749 98.8C187.023 98.8 186.469 98.576 186.085 98.128C185.701 97.68 185.509 97.0293 185.509 96.176C185.509 95.7067 185.583 95.0667 185.733 94.256L185.413 94.096C184.645 95.5893 183.674 96.752 182.501 97.584C181.349 98.3947 180.09 98.8 178.725 98.8ZM204.422 98.8C202.076 98.8 200.23 98.1173 198.886 96.752C197.564 95.3867 196.902 93.488 196.902 91.056C196.902 88.752 197.414 86.672 198.438 84.816C199.462 82.9387 200.86 81.4667 202.63 80.4C204.401 79.3333 206.342 78.8 208.454 78.8C209.798 78.8 210.854 79.024 211.622 79.472C212.412 79.8987 212.806 80.496 212.806 81.264C212.806 81.904 212.55 82.448 212.038 82.896C211.548 83.3227 210.929 83.536 210.182 83.536C209.393 83.536 208.678 83.3547 208.038 82.992C207.398 82.6293 206.876 82.0427 206.47 81.232C205.382 81.7013 204.412 82.4267 203.558 83.408C202.705 84.3893 202.033 85.5627 201.542 86.928C201.073 88.272 200.838 89.712 200.838 91.248C200.838 92.9333 201.148 94.256 201.766 95.216C202.406 96.176 203.281 96.656 204.39 96.656C205.286 96.656 206.086 96.432 206.79 95.984C207.494 95.536 208.049 94.928 208.454 94.16C208.86 93.3707 209.094 92.496 209.158 91.536C209.99 91.536 210.63 91.696 211.078 92.016C211.526 92.336 211.75 92.8267 211.75 93.488C211.75 94.448 211.42 95.3333 210.758 96.144C210.097 96.9547 209.201 97.5947 208.07 98.064C206.961 98.5547 205.745 98.8 204.422 98.8ZM220.458 91.088L224.906 87.568C225.887 86.7573 226.741 85.9787 227.466 85.232C228.191 84.464 228.767 83.6853 229.194 82.896C229.642 82.1067 229.866 81.328 229.866 80.56C229.866 80.24 229.813 79.888 229.706 79.504C230.005 79.2693 230.335 79.0987 230.698 78.992C231.082 78.864 231.455 78.8 231.818 78.8C232.437 78.8 232.927 78.992 233.29 79.376C233.653 79.76 233.834 80.2827 233.834 80.944C233.834 82.0747 233.301 83.2587 232.234 84.496C231.167 85.7333 229.514 87.056 227.274 88.464L220.106 93.008L220.458 91.088ZM219.434 98.8C218.794 98.8 218.303 98.5867 217.962 98.16C217.621 97.7547 217.45 97.1253 217.45 96.272C217.45 95.44 217.685 93.456 218.154 90.32C218.623 87.1627 219.157 83.824 219.754 80.304C219.882 79.5573 220.01 78.8427 220.138 78.16C220.266 77.456 220.383 76.7947 220.49 76.176L219.082 74.576C219.573 74.1493 220.159 73.8187 220.842 73.584C221.546 73.328 222.186 73.2 222.762 73.2C223.359 73.2 223.786 73.3387 224.042 73.616C224.298 73.872 224.426 74.32 224.426 74.96C224.426 75.3867 224.33 76.048 224.138 76.944C223.967 77.84 223.765 78.8213 223.53 79.888C222.826 83.0027 222.261 85.8187 221.834 88.336C221.407 90.832 221.194 93.3707 221.194 95.952C221.194 96.3573 221.247 96.7413 221.354 97.104C221.482 97.4453 221.642 97.712 221.834 97.904C221.514 98.1813 221.151 98.3947 220.746 98.544C220.341 98.7147 219.903 98.8 219.434 98.8ZM231.594 98.8C230.762 98.8 230.047 98.544 229.45 98.032C228.874 97.5413 228.223 96.6347 227.498 95.312L224.138 89.232L227.146 87.024L230.378 92.912C230.975 93.9787 231.562 94.8213 232.138 95.44C232.735 96.0587 233.546 96.56 234.57 96.944C234.207 97.5413 233.759 98 233.226 98.32C232.714 98.64 232.17 98.8 231.594 98.8Z" fill="black"/>
<defs>
<linearGradient id="paint0_linear_2_4" x1="150.5" y1="0" x2="150.5" y2="187" gradientUnits="userSpaceOnUse">
<stop stop-color="#859CC9"/>
<stop offset="1" stop-color="#424D63"/>
</linearGradient>
</defs>
</svg>
